<svg width="19" height="18" viewBox="0 0 19 18" fill="none" xmlns="http://www.w3.org/2000/svg">
<path fill-rule="evenodd" clip-rule="evenodd" d="M13.4645 10.9967L18.1589 15.6767C18.2611 15.7789 18.2711 15.9345 18.1811 16.0245L16.5534 17.6467C16.4634 17.7367 16.3078 17.7267 16.2045 17.6245L11.52 12.9545" fill="#2874F0"/>
<path fill-rule="evenodd" clip-rule="evenodd" d="M7.76221 12.1122C5.07332 12.1122 2.89443 9.93889 2.89443 7.25889C2.89443 4.57778 5.07332 2.40444 7.76221 2.40444C10.4511 2.40444 12.63 4.57778 12.63 7.25889C12.63 9.94 10.4511 12.1122 7.76221 12.1122ZM7.76221 0.0733337C3.78221 0.0733337 0.555542 3.29 0.555542 7.25889C0.555542 11.2278 3.78221 14.4444 7.76221 14.4444C11.7422 14.4444 14.9689 11.2278 14.9689 7.25889C14.9689 3.29 11.7422 0.0733337 7.76221 0.0733337Z" fill="#2874F0"/>
</svg>
